<!--?xml version="1.0" encoding="utf-8"?-->
<!-- Generator: Adobe Illustrator 18.1.1, SVG Export Plug-In . SVG Version: 6.00 Build 0)  -->

<svg version="1.1" id="_x32_" xmlns="http://www.w3.org/2000/svg" xmlns:xlink="http://www.w3.org/1999/xlink" x="0px" y="0px" viewBox="0 0 512 512" style="width: 256px; height: 256px; opacity: 1;" xml:space="preserve">
<style type="text/css">
	.st0{fill:#4B4B4B;}
</style>
<g>
	<path class="st0" d="M423.72,224.119H88.272C39.518,224.119,0,263.644,0,312.398v79.441c0,48.754,39.518,88.28,88.272,88.28H423.72
		c48.754,0,88.28-39.526,88.28-88.28v-79.441C512,263.644,472.474,224.119,423.72,224.119z" style="fill: rgb(255, 255, 255);"></path>
	<path class="st0" d="M438.43,173.943c0-15.894-12.875-28.777-28.767-28.777h-31.555V91.484c0.017-16.397-6.706-31.43-17.447-42.147
		c-10.725-10.75-25.758-17.464-42.148-17.456H170.673v44.14h147.841c4.341,0.017,8.063,1.695,10.94,4.532
		c2.82,2.861,4.506,6.598,4.523,10.931v53.682H108.225c-15.894,0-28.777,12.883-28.777,28.777v24.195H438.43V173.943z" style="fill: rgb(255, 255, 255);"></path>
</g>
</svg>
