<!--?xml version="1.0" encoding="utf-8"?-->
<!-- Generator: Adobe Illustrator 15.1.0, SVG Export Plug-In . SVG Version: 6.00 Build 0)  -->

<svg version="1.1" id="_x32_" xmlns="http://www.w3.org/2000/svg" xmlns:xlink="http://www.w3.org/1999/xlink" x="0px" y="0px" width="512px" height="512px" viewBox="0 0 512 512" style="width: 256px; height: 256px; opacity: 1;" xml:space="preserve">
<style type="text/css">

	.st0{fill:#4B4B4B;}

</style>
<g>
	<path class="st0" d="M501.177,264.511c-63.703-25.719-129.282-193.109-245.172-119.547
		C140.098,71.401,74.536,238.792,10.817,264.511c-17.063,6.891-15.594,14.563,16.375,38.313
		c62.281,46.328,124.797,82.75,228.813,82.75c104,0,166.516-36.422,228.797-82.75C516.771,279.073,518.255,271.401,501.177,264.511z
		 M188.629,144.964c6,0,10.875,4.875,10.875,10.891s-4.875,10.891-10.875,10.891c-6.016,0-10.891-4.875-10.891-10.891
		S182.614,144.964,188.629,144.964z M309.067,335.573c-18.422,0-33.359-5.484-33.359-12.281s14.938-12.297,33.359-12.297
		c18.406,0,33.328,5.5,33.328,12.297S327.473,335.573,309.067,335.573z M256.004,290.261c-36.781,0-88.922,0-131.047-20.688
		c0,0,72.188-40.016,131.047-40.016c58.844,0,131.047,40.016,131.047,40.016C344.911,290.261,292.77,290.261,256.004,290.261z" style="fill: rgb(255, 255, 255);"></path>
</g>
</svg>
