<!--?xml version="1.0" encoding="utf-8"?-->
<!-- Generator: Adobe Illustrator 15.1.0, SVG Export Plug-In . SVG Version: 6.00 Build 0)  -->

<svg version="1.1" id="_x32_" xmlns="http://www.w3.org/2000/svg" xmlns:xlink="http://www.w3.org/1999/xlink" x="0px" y="0px" width="512px" height="512px" viewBox="0 0 512 512" style="width: 256px; height: 256px; opacity: 1;" xml:space="preserve">
<style type="text/css">

	.st0{fill:#4B4B4B;}

</style>
<g>
	<path class="st0" d="M510.098,370.547c0,0-16.859-119.531-111.86-182.344l-37.906-25.219c-13.172-6.5-23.75-17.25-30.031-30.531
		l-9.141-19.266C317.941,106.344,311.05,102,303.503,102H82.738L40.816,70.016c-1.125-0.875-2.516-1.344-3.953-1.344H18.003
		c-3.594,0-6.516,2.922-6.516,6.516v26.922c-6.469,0.75-11.484,6.234-11.484,12.922v68.188c0,7.188,5.828,13.031,13.031,13.031
		h129.297v72.391v11.5v6.063c0,0.219,0,0.422,0,0.578c-0.016,22.766,9.219,43.516,24.109,58.484
		c14.859,15,35.563,24.391,58.344,24.547c0.219,0,0.422,0,0.609,0c22.734,0.016,43.5-9.219,58.484-24.109
		c14.984-14.844,24.375-35.547,24.531-58.344v-0.094v-4.063c9.063,10.391,36.922,48.141,43.063,125.719
		c0.875,11,0.531,15.531,0.531,15.531c0.359,10.531,9,18.875,19.531,18.875h80.938c18.266,0,36.219-4.891,47.859-18.969
		C514.113,407.688,513.16,393.531,510.098,370.547z M278.519,287.172c-0.109,14.641-6.063,27.75-15.703,37.344
		c-9.656,9.563-22.813,15.422-37.422,15.422h-0.391c-14.672-0.109-27.766-6.078-37.359-15.719
		c-9.578-9.656-15.125-17.672-15.141-32.313c0,0-0.578-11.766,9.766-11.766c6.266,0,33.531,0,56.156,0
		c-0.344,0.359-0.688,0.75-1.016,1.094c-10.109,10.672-14.391,13.359-14.391,13.359c-0.891,0.828-1.344,2.016-1.234,3.219
		c0.125,1.219,0.781,2.313,1.813,2.953l10.156,6.438c1.281,0.797,2.906,0.797,4.188,0c0,0,12.469-7.297,18.484-11.688
		c6.859-5.016,12.656-10.031,17.5-14.75C278.91,282.5,278.519,287.172,278.519,287.172z M287.144,245.656H271.05v-22.219h-84.656
		c-4.859,0-8.813-3.953-8.813-8.813s3.953-8.813,8.813-8.813h84.656v-33.703h-84.656c-4.859,0-8.813-3.953-8.813-8.813
		c0-4.875,3.953-8.813,8.813-8.813h84.656v-19.156h16.094V245.656z M426.191,398.5c-9.516,0-17.235-7.719-17.235-17.234
		s7.719-17.234,17.235-17.234c9.531,0,17.234,7.719,17.234,17.234S435.723,398.5,426.191,398.5z" style="fill: rgb(255, 255, 255);"></path>
	<path class="st0" d="M348.035,142.422c7.656-8.531,15.672-15.688,22.672-21.281c11.484-9.172,16.094-11.25,16.094-11.25
		c0.984-0.703,1.609-1.813,1.656-3.031c0.063-1.203-0.453-2.375-1.375-3.156l-9.188-7.766c-1.141-0.984-2.766-1.203-4.125-0.594
		c0,0-13.359,5.5-19.922,9.031c-8.031,4.313-14.813,8.781-20.5,13.031l5.266,11.125
		C341.019,133.625,344.238,138.297,348.035,142.422z" style="fill: rgb(255, 255, 255);"></path>
</g>
</svg>
